<svg data-v-423bf9ae="" xmlns="http://www.w3.org/2000/svg" viewBox="0 0 325 91" class="iconLeft"><!----><!----><!----><g data-v-423bf9ae="" id="668a54d3-94af-4781-b141-82f6d0751e3f" fill="#FFFFFF" transform="matrix(3.584229439687277,0,0,3.584229439687277,116.13666079738415,2.2401429229673866)"><path d="M6.87 14.36L6.87 14.36L6.87 14.36Q6.87 13.78 7.07 12.85L7.07 12.85L7.07 12.85Q7.27 11.93 7.59 10.88L7.59 10.88L7.59 10.88Q6.66 10.95 5.73 11.06L5.73 11.06L5.73 11.06Q4.80 11.17 4.12 11.19L4.12 11.19L4.12 11.19Q3.49 12.66 3.12 13.89L3.12 13.89L3.12 13.89Q2.74 15.13 2.53 16.31L2.53 16.31L2.53 16.31Q2.00 16.18 1.65 15.87L1.65 15.87L1.65 15.87Q1.30 15.55 1.01 15.08L1.01 15.08L1.01 15.08Q1.12 14.85 1.27 14.50L1.27 14.50L1.27 14.50Q1.41 14.15 1.62 13.66L1.62 13.66L1.62 13.66Q1.82 13.16 2.08 12.50L2.08 12.50L2.08 12.50Q2.34 11.83 2.67 10.95L2.67 10.95L2.67 10.95Q2.21 10.75 2.06 10.40L2.06 10.40L2.06 10.40Q2.13 10.35 2.37 10.28L2.37 10.28L2.37 10.28Q2.62 10.22 2.98 10.15L2.98 10.15L3.16 9.70L3.16 9.70Q3.46 8.95 3.65 8.43L3.65 8.43L3.65 8.43Q3.84 7.91 3.97 7.41L3.97 7.41L3.97 7.41Q4.10 6.92 4.22 6.31L4.22 6.31L4.22 6.31Q4.34 5.71 4.51 4.79L4.51 4.79L4.51 4.79Q5.10 4.90 5.58 5.31L5.58 5.31L5.58 5.31Q6.06 5.71 6.41 6.29L6.41 6.29L6.41 6.29Q6.29 6.45 6.10 6.79L6.10 6.79L6.10 6.79Q5.92 7.13 5.71 7.59L5.71 7.59L5.71 7.59Q5.49 8.06 5.24 8.64L5.24 8.64L5.24 8.64Q4.98 9.23 4.69 9.87L4.69 9.87L4.69 9.87Q5.56 9.76 6.45 9.66L6.45 9.66L6.45 9.66Q7.34 9.56 8.02 9.52L8.02 9.52L8.02 9.52Q8.27 8.79 8.55 8.10L8.55 8.10L8.55 8.10Q8.82 7.41 9.09 6.83L9.09 6.83L9.09 6.83Q9.35 6.26 9.60 5.82L9.60 5.82L9.60 5.82Q9.84 5.39 10.04 5.18L10.04 5.18L10.04 5.18Q10.18 5.19 10.41 5.29L10.41 5.29L10.41 5.29Q10.64 5.38 10.88 5.50L10.88 5.50L10.88 5.50Q11.12 5.63 11.31 5.78L11.31 5.78L11.31 5.78Q11.51 5.92 11.58 6.05L11.58 6.05L11.58 6.05Q11.33 6.29 11.07 6.66L11.07 6.66L11.07 6.66Q10.82 7.04 10.58 7.53L10.58 7.53L10.58 7.53Q10.33 8.02 10.09 8.60L10.09 8.60L10.09 8.60Q9.86 9.17 9.65 9.79L9.65 9.79L9.65 9.79Q9.93 10.04 9.93 10.42L9.93 10.42L9.93 10.42Q9.93 10.68 9.81 10.91L9.81 10.91L9.81 10.91Q9.69 10.88 9.56 10.87L9.56 10.87L9.56 10.87Q9.44 10.86 9.30 10.85L9.30 10.85L9.30 10.85Q9.06 11.61 8.86 12.35L8.86 12.35L8.86 12.35Q8.67 13.09 8.53 13.76L8.53 13.76L8.53 13.76Q8.40 14.43 8.32 14.99L8.32 14.99L8.32 14.99Q8.25 15.55 8.25 15.93L8.25 15.93L8.25 15.93Q8.25 16.07 8.25 16.16L8.25 16.16L8.25 16.16Q8.26 16.24 8.27 16.30L8.27 16.30L8.27 16.30Q7.97 16.28 7.83 16.19L7.83 16.19L7.83 16.19Q7.69 16.10 7.62 16.00L7.62 16.00L7.62 16.00Q7.55 15.89 7.49 15.79L7.49 15.79L7.49 15.79Q7.43 15.68 7.31 15.62L7.31 15.62L7.31 15.62Q7.21 15.58 7.13 15.43L7.13 15.43L7.13 15.43Q7.04 15.27 6.99 15.08L6.99 15.08L6.99 15.08Q6.93 14.88 6.90 14.69L6.90 14.69L6.90 14.69Q6.87 14.49 6.87 14.36ZM15.50 9.38L15.50 9.38L15.50 9.38Q15.44 10.25 15.19 10.87L15.19 10.87L15.19 10.87Q14.94 11.49 14.47 11.96L14.47 11.96L14.47 11.96Q14.00 12.43 13.33 12.81L13.33 12.81L13.33 12.81Q12.66 13.19 11.76 13.54L11.76 13.54L11.76 13.54Q11.76 13.62 11.75 13.71L11.75 13.71L11.75 13.71Q11.75 13.80 11.75 13.90L11.75 13.90L11.75 13.90Q11.75 14.08 11.77 14.28L11.77 14.28L11.77 14.28Q11.80 14.48 11.87 14.64L11.87 14.64L11.87 14.64Q11.94 14.81 12.07 14.92L12.07 14.92L12.07 14.92Q12.19 15.02 12.39 15.02L12.39 15.02L12.39 15.02Q12.77 15.02 13.13 14.85L13.13 14.85L13.13 14.85Q13.50 14.69 13.83 14.44L13.83 14.44L13.83 14.44Q14.15 14.20 14.44 13.91L14.44 13.91L14.44 13.91Q14.73 13.62 14.95 13.38L14.95 13.38L14.95 13.38Q15.09 13.51 15.19 13.62L15.19 13.62L15.19 13.62Q14.56 14.46 13.81 15.02L13.81 15.02L13.81 15.02Q13.06 15.57 12.39 15.72L12.39 15.72L12.39 15.72Q11.42 15.61 10.89 15.02L10.89 15.02L10.89 15.02Q10.35 14.42 10.35 13.58L10.35 13.58L10.35 13.58Q10.35 13.01 10.51 12.41L10.51 12.41L10.51 12.41Q10.67 11.82 10.96 11.26L10.96 11.26L10.96 11.26Q11.24 10.71 11.63 10.22L11.63 10.22L11.63 10.22Q12.01 9.73 12.45 9.37L12.45 9.37L12.45 9.37Q12.89 9.00 13.36 8.79L13.36 8.79L13.36 8.79Q13.83 8.58 14.29 8.58L14.29 8.58L14.29 8.58Q14.94 8.67 15.50 9.38ZM14.53 9.84L14.53 9.84L14.53 9.84Q14.15 9.90 13.75 10.15L13.75 10.15L13.75 10.15Q13.34 10.40 12.99 10.82L12.99 10.82L12.99 10.82Q12.63 11.24 12.33 11.80L12.33 11.80L12.33 11.80Q12.04 12.36 11.87 13.01L11.87 13.01L11.87 13.01Q12.99 12.45 13.73 11.63L13.73 11.63L13.73 11.63Q14.48 10.81 14.53 9.84ZM16.13 14.28L16.13 14.28L16.13 14.28Q16.13 13.66 16.42 12.55L16.42 12.55L16.42 12.55Q16.72 11.44 17.25 9.95L17.25 9.95L17.25 9.95Q18.12 7.59 18.88 6.01L18.88 6.01L18.88 6.01Q19.64 4.44 20.37 3.56L20.37 3.56L20.37 3.56Q20.54 3.58 20.78 3.70L20.78 3.70L20.78 3.70Q21.03 3.81 21.27 3.94L21.27 3.94L21.27 3.94Q21.50 4.07 21.69 4.21L21.69 4.21L21.69 4.21Q21.88 4.35 21.94 4.44L21.94 4.44L21.94 4.44Q20.85 5.73 20.02 7.21L20.02 7.21L20.02 7.21Q19.19 8.69 18.51 10.61L18.51 10.61L18.51 10.61Q17.92 12.26 17.61 13.59L17.61 13.59L17.61 13.59Q17.30 14.91 17.30 15.79L17.30 15.79L17.30 15.79Q17.30 16.03 17.30 16.09L17.30 16.09L17.30 16.09Q17.30 16.14 17.32 16.20L17.32 16.20L17.32 16.20Q17.12 16.17 16.98 16.10L16.98 16.10L16.98 16.10Q16.84 16.03 16.80 15.93L16.80 15.93L16.80 15.93Q16.77 15.86 16.65 15.73L16.65 15.73L16.65 15.73Q16.52 15.60 16.42 15.53L16.42 15.53L16.42 15.53Q16.30 15.44 16.21 15.09L16.21 15.09L16.21 15.09Q16.13 14.73 16.13 14.28ZM18.42 19.81L18.42 19.81L18.42 19.81Q18.23 19.75 18.20 19.39L18.20 19.39L18.20 19.39Q18.14 19.21 18.12 18.96L18.12 18.96L18.12 18.96Q18.10 18.70 18.10 18.38L18.10 18.38L18.10 18.38Q18.10 18.09 18.20 17.58L18.20 17.58L18.20 17.58Q18.30 17.07 18.47 16.42L18.47 16.42L18.47 16.42Q18.65 15.78 18.90 15.03L18.90 15.03L18.90 15.03Q19.15 14.28 19.46 13.51L19.46 13.51L19.46 13.51Q19.84 12.54 20.12 11.84L20.12 11.84L20.12 11.84Q20.40 11.13 20.59 10.61L20.59 10.61L20.59 10.61Q20.78 10.09 20.89 9.76L20.89 9.76L20.89 9.76Q21.01 9.42 21.08 9.18L21.08 9.18L21.08 9.18Q21.14 9.02 21.25 8.78L21.25 8.78L21.25 8.78Q21.36 8.54 21.51 8.29L21.51 8.29L21.51 8.29Q21.66 8.05 21.81 7.83L21.81 7.83L21.81 7.83Q21.97 7.62 22.09 7.50L22.09 7.50L22.09 7.50Q22.58 7.57 23.02 7.76L23.02 7.76L23.02 7.76Q23.45 7.94 23.55 8.11L23.55 8.11L23.55 8.11Q23.35 8.29 23.10 8.67L23.10 8.67L23.10 8.67Q22.85 9.06 22.61 9.51L22.61 9.51L22.61 9.51Q22.37 9.97 22.18 10.44L22.18 10.44L22.18 10.44Q21.98 10.92 21.88 11.28L21.88 11.28L21.88 11.28Q22.02 11.05 22.25 10.77L22.25 10.77L22.25 10.77Q22.47 10.49 22.93 10.00L22.93 10.00L22.93 10.00Q23.45 9.46 23.91 9.18L23.91 9.18L23.91 9.18Q24.36 8.89 24.70 8.89L24.70 8.89L24.70 8.89Q25.23 8.89 25.57 9.18L25.57 9.18L25.57 9.18Q25.91 9.48 25.91 9.94L25.91 9.94L25.91 9.94Q25.91 10.95 25.58 11.94L25.58 11.94L25.58 11.94Q25.24 12.92 24.61 13.72L24.61 13.72L24.61 13.72Q24.37 14.03 24.05 14.31L24.05 14.31L24.05 14.31Q23.73 14.59 23.38 14.80L23.38 14.80L23.38 14.80Q23.03 15.02 22.69 15.15L22.69 15.15L22.69 15.15Q22.36 15.27 22.09 15.27L22.09 15.27L22.09 15.27Q21.84 15.27 21.65 15.17L21.65 15.17L21.65 15.17Q21.46 15.06 21.39 14.91L21.39 14.91L21.39 14.91Q21.94 14.59 22.46 14.01L22.46 14.01L22.46 14.01Q22.97 13.44 23.41 12.69L23.41 12.69L23.41 12.69Q23.86 11.94 24.19 11.07L24.19 11.07L24.19 11.07Q24.51 10.21 24.68 9.31L24.68 9.31L24.68 9.31Q24.15 9.59 23.72 9.92L23.72 9.92L23.72 9.92Q23.30 10.25 22.88 10.78L22.88 10.78L22.88 10.78Q22.37 11.40 22.08 11.77L22.08 11.77L22.08 11.77Q21.78 12.15 21.60 12.42L21.60 12.42L21.60 12.42Q21.41 12.68 21.29 12.91L21.29 12.91L21.29 12.91Q21.17 13.15 21.03 13.48L21.03 13.48L21.03 13.48Q20.83 13.93 20.57 14.67L20.57 14.67L20.57 14.67Q20.31 15.40 20.04 16.31L20.04 16.31L20.04 16.31Q19.77 17.22 19.50 18.25L19.50 18.25L19.50 18.25Q19.22 19.28 18.97 20.30L18.97 20.30L18.97 20.30Q18.82 20.27 18.70 20.08L18.70 20.08L18.70 20.08Q18.59 19.95 18.54 19.89L18.54 19.89L18.54 19.89Q18.49 19.84 18.42 19.81ZM27.92 12.57L27.92 12.57L27.92 12.57Q27.48 12.57 27.22 12.33L27.22 12.33L27.22 12.33Q26.96 12.08 26.96 11.65L26.96 11.65L26.96 11.65Q26.96 11.58 26.99 11.44L26.99 11.44L26.99 11.44Q27.02 11.30 27.05 11.23L27.05 11.23L27.05 11.23Q27.29 11.27 27.50 11.28L27.50 11.28L27.50 11.28Q27.71 11.28 28.04 11.28L28.04 11.28L28.04 11.28Q28.76 11.28 29.38 11.24L29.38 11.24L29.38 11.24Q30.00 11.20 30.51 11.14L30.51 11.14L30.51 11.14Q31.01 11.09 31.37 11.05L31.37 11.05L31.37 11.05Q31.74 11.00 31.93 11.00L31.93 11.00L31.93 11.00Q32.20 11.00 32.40 11.33L32.40 11.33L32.40 11.33Q32.61 11.65 32.70 12.25L32.70 12.25L32.70 12.25Q32.35 12.21 32.13 12.19L32.13 12.19L32.13 12.19Q31.91 12.18 31.74 12.18L31.74 12.18L31.74 12.18Q31.14 12.18 30.62 12.24L30.62 12.24L30.62 12.24Q30.10 12.31 29.64 12.38L29.64 12.38L29.64 12.38Q29.18 12.45 28.76 12.51L28.76 12.51L28.76 12.51Q28.34 12.57 27.92 12.57ZM35.08 16.24L35.08 16.24L35.08 16.24Q34.29 16.00 34.01 15.79L34.01 15.79L34.01 15.79Q33.73 15.57 33.73 15.19L33.73 15.19L33.73 15.19Q33.73 14.77 33.92 14.01L33.92 14.01L33.92 14.01Q34.12 13.24 34.43 12.31L34.43 12.31L34.43 12.31Q34.75 11.37 35.15 10.35L35.15 10.35L35.15 10.35Q35.56 9.32 35.98 8.39L35.98 8.39L35.98 8.39Q36.40 7.45 36.80 6.67L36.80 6.67L36.80 6.67Q37.20 5.89 37.51 5.46L37.51 5.46L37.41 4.87L37.41 4.87Q37.60 4.87 37.95 4.97L37.95 4.97L37.95 4.97Q38.30 5.07 38.66 5.21L38.66 5.21L38.66 5.21Q39.02 5.35 39.29 5.49L39.29 5.49L39.29 5.49Q39.56 5.64 39.59 5.74L39.59 5.74L39.59 5.74Q39.52 6.08 39.48 6.76L39.48 6.76L39.48 6.76Q39.44 7.43 39.44 8.20L39.44 8.20L39.44 8.20Q39.44 9.73 39.56 11.19L39.56 11.19L39.56 11.19Q39.68 12.66 40.11 14.17L40.11 14.17L40.11 14.17Q40.33 13.05 40.59 11.94L40.59 11.94L40.59 11.94Q40.85 10.82 41.13 9.81L41.13 9.81L41.13 9.81Q41.41 8.79 41.69 7.92L41.69 7.92L41.69 7.92Q41.97 7.06 42.23 6.40L42.23 6.40L42.23 6.40Q42.49 5.75 42.71 5.38L42.71 5.38L42.71 5.38Q42.94 5.01 43.12 4.98L43.12 4.98L43.12 4.98Q43.27 5.01 43.46 5.10L43.46 5.10L43.46 5.10Q43.64 5.19 43.81 5.32L43.81 5.32L43.81 5.32Q43.97 5.45 44.11 5.60L44.11 5.60L44.11 5.60Q44.25 5.75 44.34 5.91L44.34 5.91L44.34 5.91Q43.89 6.09 43.45 6.76L43.45 6.76L43.45 6.76Q43.01 7.43 42.61 8.39L42.61 8.39L42.61 8.39Q42.21 9.35 41.87 10.47L41.87 10.47L41.87 10.47Q41.52 11.59 41.27 12.68L41.27 12.68L41.27 12.68Q41.01 13.76 40.86 14.69L40.86 14.69L40.86 14.69Q40.71 15.61 40.70 16.17L40.70 16.17L40.70 16.17Q40.70 16.20 40.71 16.21L40.71 16.21L40.71 16.21Q40.67 16.23 40.62 16.23L40.62 16.23L40.62 16.23Q40.57 16.23 40.53 16.23L40.53 16.23L40.53 16.23Q39.89 16.23 39.39 16.07L39.39 16.07L39.39 16.07Q38.89 15.90 38.74 15.61L38.74 15.61L38.74 15.61Q38.44 14.43 38.25 13.34L38.25 13.34L38.25 13.34Q38.05 12.25 37.92 11.16L37.92 11.16L37.92 11.16Q37.79 10.07 37.71 8.95L37.71 8.95L37.71 8.95Q37.63 7.84 37.59 6.62L37.59 6.62L37.59 6.62Q37.32 7.04 37.03 7.72L37.03 7.72L37.03 7.72Q36.74 8.40 36.46 9.21L36.46 9.21L36.46 9.21Q36.18 10.02 35.92 10.92L35.92 10.92L35.92 10.92Q35.66 11.82 35.46 12.67L35.46 12.67L35.46 12.67Q35.27 13.52 35.15 14.29L35.15 14.29L35.15 14.29Q35.04 15.05 35.04 15.61L35.04 15.61L35.04 15.61Q35.04 15.90 35.05 16.03L35.05 16.03L35.05 16.03Q35.06 16.16 35.08 16.24ZM44.63 15.67L44.63 15.67L44.63 15.67Q43.83 15.58 43.36 14.97L43.36 14.97L43.36 14.97Q42.88 14.35 42.88 13.40L42.88 13.40L42.88 13.40Q42.88 12.84 43.05 12.24L43.05 12.24L43.05 12.24Q43.22 11.63 43.53 11.07L43.53 11.07L43.53 11.07Q43.83 10.50 44.25 10.00L44.25 10.00L44.25 10.00Q44.67 9.49 45.16 9.13L45.16 9.13L45.16 9.13Q45.93 8.55 46.61 8.55L46.61 8.55L46.61 8.55Q47.05 8.79 47.49 9.55L47.49 9.55L47.49 9.55Q47.56 9.55 47.61 9.54L47.61 9.54L47.61 9.54Q47.67 9.53 47.74 9.53L47.74 9.53L47.74 9.53Q48.48 9.53 48.48 10.85L48.48 10.85L48.48 10.85Q48.48 11.73 48.20 12.52L48.20 12.52L48.20 12.52Q47.91 13.31 47.40 13.96L47.40 13.96L47.40 13.96Q46.89 14.60 46.18 15.04L46.18 15.04L46.18 15.04Q45.47 15.48 44.63 15.67ZM45.35 11.26L45.35 11.26L45.35 11.26Q45.11 11.58 44.90 11.96L44.90 11.96L44.90 11.96Q44.69 12.33 44.53 12.72L44.53 12.72L44.53 12.72Q44.38 13.10 44.30 13.46L44.30 13.46L44.30 13.46Q44.21 13.82 44.21 14.10L44.21 14.10L44.21 14.10Q44.21 14.43 44.32 14.74L44.32 14.74L44.32 14.74Q44.44 15.05 44.58 15.09L44.58 15.09L44.58 15.09Q45.21 14.95 45.73 14.57L45.73 14.57L45.73 14.57Q46.26 14.18 46.64 13.61L46.64 13.61L46.64 13.61Q47.03 13.03 47.24 12.31L47.24 12.31L47.24 12.31Q47.46 11.58 47.46 10.75L47.46 10.75L47.46 10.75Q47.46 10.39 47.42 10.18L47.42 10.18L47.42 10.18Q47.38 9.97 47.28 9.81L47.28 9.81L47.28 9.81Q46.66 10.00 46.18 10.40L46.18 10.40L46.18 10.40Q45.70 10.81 45.35 11.26ZM49.28 14.60L49.28 14.60L49.28 14.60Q49.28 14.32 49.34 13.82L49.34 13.82L49.34 13.82Q49.41 13.31 49.51 12.73L49.51 12.73L49.51 12.73Q49.62 12.14 49.75 11.52L49.75 11.52L49.75 11.52Q49.88 10.91 50.02 10.42L50.02 10.42L50.02 10.42Q50.20 9.76 50.59 9.40L50.59 9.40L50.59 9.40Q50.97 9.04 51.55 9.04L51.55 9.04L51.55 9.04Q51.86 9.04 52.16 9.14L52.16 9.14L52.16 9.14Q52.46 9.24 52.51 9.39L52.51 9.39L52.51 9.39Q52.11 9.73 51.86 10.23L51.86 10.23L51.86 10.23Q51.62 10.72 51.47 11.29L51.47 11.29L51.47 11.29Q51.32 11.86 51.25 12.45L51.25 12.45L51.25 12.45Q51.17 13.05 51.09 13.57L51.09 13.57L51.09 13.57Q51.55 12.95 51.96 12.45L51.96 12.45L51.96 12.45Q52.37 11.96 52.70 11.66L52.70 11.66L52.70 11.66Q53.13 11.26 53.28 10.98L53.28 10.98L53.28 10.98Q53.44 10.71 53.55 10.39L53.55 10.39L53.55 10.39Q53.63 10.14 53.75 9.80L53.75 9.80L53.75 9.80Q53.87 9.46 54.15 9.18L54.15 9.18L54.15 9.18Q54.21 9.17 54.39 9.17L54.39 9.17L54.39 9.17Q54.53 9.17 54.69 9.18L54.69 9.18L54.69 9.18Q54.85 9.20 54.99 9.24L54.99 9.24L54.99 9.24Q55.13 9.28 55.23 9.34L55.23 9.34L55.23 9.34Q55.33 9.39 55.34 9.48L55.34 9.48L55.34 9.48Q55.12 9.77 54.92 10.39L54.92 10.39L54.92 10.39Q54.73 11.02 54.57 11.76L54.57 11.76L54.57 11.76Q54.42 12.50 54.29 13.24L54.29 13.24L54.29 13.24Q54.17 13.97 54.07 14.48L54.07 14.48L54.07 14.48Q54.12 14.45 54.32 14.25L54.32 14.25L54.32 14.25Q54.52 14.06 54.76 13.76L54.76 13.76L54.76 13.76Q55.01 13.47 55.28 13.12L55.28 13.12L55.28 13.12Q55.55 12.77 55.76 12.43L55.76 12.43L55.76 12.43Q56.03 12.03 56.20 11.67L56.20 11.67L56.20 11.67Q56.38 11.31 56.51 10.91L56.51 10.91L56.51 10.91Q56.64 10.50 56.76 10.00L56.76 10.00L56.76 10.00Q56.87 9.51 56.99 8.82L56.99 8.82L56.99 8.82Q57.08 8.71 57.37 8.63L57.37 8.63L57.37 8.63Q57.65 8.55 57.89 8.55L57.89 8.55L57.89 8.55Q58.10 8.55 58.20 8.62L58.20 8.62L58.20 8.62Q58.13 9.41 57.94 10.02L57.94 10.02L57.94 10.02Q57.75 10.64 57.43 11.22L57.43 11.22L57.43 11.22Q57.11 11.80 56.63 12.38L56.63 12.38L56.63 12.38Q56.15 12.96 55.51 13.65L55.51 13.65L55.51 13.65Q55.24 13.93 54.93 14.27L54.93 14.27L54.93 14.27Q54.61 14.60 54.31 14.89L54.31 14.89L54.31 14.89Q54.01 15.18 53.75 15.37L53.75 15.37L53.75 15.37Q53.49 15.57 53.35 15.57L53.35 15.57L53.35 15.57Q53.03 15.57 52.82 15.32L52.82 15.32L52.82 15.32Q52.61 15.06 52.61 14.67L52.61 14.67L52.61 14.67Q52.61 14.27 52.65 13.96L52.65 13.96L52.65 13.96Q52.68 13.66 52.77 13.33L52.77 13.33L52.77 13.33Q52.85 13.02 52.90 12.81L52.90 12.81L52.90 12.81Q52.95 12.60 52.98 12.45L52.98 12.45L52.98 12.45Q53.02 12.29 53.03 12.18L53.03 12.18L53.03 12.18Q53.05 12.07 53.06 11.96L53.06 11.96L53.06 11.96Q52.95 12.01 52.77 12.19L52.77 12.19L52.77 12.19Q52.58 12.36 52.39 12.59L52.39 12.59L52.39 12.59Q52.19 12.82 52.00 13.06L52.00 13.06L52.00 13.06Q51.80 13.30 51.67 13.47L51.67 13.47L51.67 13.47Q51.41 13.83 51.21 14.11L51.21 14.11L51.21 14.11Q51.02 14.39 50.84 14.64L50.84 14.64L50.84 14.64Q50.67 14.90 50.50 15.15L50.50 15.15L50.50 15.15Q50.33 15.41 50.11 15.71L50.11 15.71L50.11 15.71Q49.66 15.57 49.47 15.29L49.47 15.29L49.47 15.29Q49.28 15.01 49.28 14.60Z"></path></g><!----><g data-v-423bf9ae="" id="809030a2-932e-48bd-97cd-a06b96b2b0c5" transform="matrix(1.0179258456181008,0,0,1.0179258456181008,-0.896292280905044,-5.103741684166216)" stroke="none" fill="#E96D77"><path d="M50.3 40.77c-6.6-9.1-20-6.1-19.77 5.7.18 11.4 13 17.23 19.77 24.79 6.75-7.56 19.59-13.39 19.77-24.79.19-11.8-13.17-14.8-19.77-5.7z"></path><path d="M99 62.83L86 48 73 62.83h8.26a33.32 33.32 0 0 1-62.38-2.37 5.44 5.44 0 1 0-10.42 3.42 44.21 44.21 0 0 0 83.6 1 5.41 5.41 0 0 0 .31-2zM14 52l13-14.83h-7.34a33.34 33.34 0 0 1 62.16 1.63 5.44 5.44 0 1 0 10.24-3.65 44.2 44.2 0 0 0-83.93 2H1z"></path></g><!----></svg>